<svg width="19" height="19" viewBox="0 0 19 19" fill="none" xmlns="http://www.w3.org/2000/svg">
<path d="M0.535156 8.00293C0.535156 9.00553 0.723958 9.94629 1.10156 10.8252C1.47917 11.7041 2 12.4788 2.66406 13.1494C3.33464 13.82 4.10938 14.3441 4.98828 14.7217C5.86719 15.0993 6.80794 15.2881 7.81055 15.2881C8.62435 15.2881 9.39258 15.1644 10.1152 14.917C10.8379 14.6631 11.502 14.3148 12.1074 13.8721L16.7559 18.54C16.8535 18.6312 16.9642 18.6995 17.0879 18.7451C17.2181 18.7972 17.3483 18.8232 17.4785 18.8232C17.6738 18.8232 17.8464 18.7777 17.9961 18.6865C18.1458 18.6019 18.263 18.4814 18.3477 18.3252C18.4323 18.1755 18.4746 18.0029 18.4746 17.8076C18.4746 17.6774 18.4486 17.5505 18.3965 17.4268C18.3509 17.3096 18.2826 17.2021 18.1914 17.1045L13.5625 12.4561C14.0443 11.8441 14.4219 11.1605 14.6953 10.4053C14.9688 9.64355 15.1055 8.84277 15.1055 8.00293C15.1055 6.99382 14.9167 6.0498 14.5391 5.1709C14.1615 4.29199 13.6374 3.52051 12.9668 2.85645C12.2962 2.18587 11.5215 1.66178 10.6426 1.28418C9.76367 0.900065 8.81966 0.708008 7.81055 0.708008C6.80794 0.708008 5.86719 0.900065 4.98828 1.28418C4.10938 1.66178 3.33464 2.18587 2.66406 2.85645C2 3.52051 1.47917 4.29199 1.10156 5.1709C0.723958 6.0498 0.535156 6.99382 0.535156 8.00293ZM1.95117 8.00293C1.95117 7.18913 2.10417 6.43066 2.41016 5.72754C2.71615 5.0179 3.13607 4.39616 3.66992 3.8623C4.21029 3.32194 4.83203 2.90202 5.53516 2.60254C6.24479 2.29655 7.00326 2.14355 7.81055 2.14355C8.62435 2.14355 9.38281 2.29655 10.0859 2.60254C10.7956 2.90202 11.4173 3.32194 11.9512 3.8623C12.4915 4.39616 12.9115 5.0179 13.2109 5.72754C13.5169 6.43066 13.6699 7.18913 13.6699 8.00293C13.6699 8.81022 13.5169 9.56868 13.2109 10.2783C12.9115 10.9814 12.4915 11.6032 11.9512 12.1436C11.4173 12.6774 10.7956 13.0973 10.0859 13.4033C9.38281 13.7028 8.62435 13.8525 7.81055 13.8525C7.00326 13.8525 6.24479 13.7028 5.53516 13.4033C4.83203 13.0973 4.21029 12.6774 3.66992 12.1436C3.13607 11.6032 2.71615 10.9814 2.41016 10.2783C2.10417 9.56868 1.95117 8.81022 1.95117 8.00293Z" fill="black"/>
</svg>
