<svg width="30" height="20" viewBox="0 0 30 20" fill="none" xmlns="http://www.w3.org/2000/svg">
<path d="M24.6269 1.8493H2.29088C1.02566 1.8493 0 2.88204 0 4.15598V17.4193C0 18.6933 1.02566 19.726 2.29088 19.726H24.6269C25.8921 19.726 26.9178 18.6933 26.9178 17.4193V4.15598C26.9178 2.88204 25.8921 1.8493 24.6269 1.8493Z" fill="#DDDDDD"/>
<rect x="2.26025" y="10.0685" width="22.1918" height="2.87671" rx="0.821918" fill="white"/>
<rect y="4.726" width="26.9178" height="2.87671" fill="#B5B5B5"/>
<circle cx="23.4247" cy="6.57534" r="6.57534" fill="#565656"/>
<mask id="mask0" mask-type="alpha" maskUnits="userSpaceOnUse" x="16" y="0" width="13" height="13">
<circle cx="22.911" cy="6.67807" r="6.06164" fill="#565656"/>
</mask>
<g mask="url(#mask0)">
<path d="M20.2916 9.53881H19.4175V4.60998L18.0209 5.46599V4.51987L19.4896 3.64584H20.2916V9.53881Z" fill="white"/>
<path d="M24.7594 7.91689C24.7594 8.40346 24.5852 8.80594 24.2368 9.12432C23.8884 9.43669 23.4078 9.59287 22.7951 9.59287C22.1824 9.59287 21.6718 9.49075 21.2633 9.28651V8.42149C21.7078 8.66177 22.1944 8.78191 22.723 8.78191C23.0774 8.78191 23.3538 8.69481 23.552 8.5206C23.7562 8.34039 23.8584 8.10912 23.8584 7.82678C23.8584 7.54445 23.7472 7.32519 23.525 7.169C23.3027 7.01282 22.9693 6.93473 22.5248 6.93473H22.1644V6.17783H22.5248C22.8552 6.17783 23.1315 6.09674 23.3538 5.93454C23.582 5.76635 23.6962 5.53808 23.6962 5.24973C23.6962 4.96139 23.6031 4.74514 23.4168 4.60097C23.2366 4.4568 22.9633 4.38471 22.5969 4.38471C22.2365 4.38471 21.855 4.51086 21.4525 4.76316V3.90715C21.825 3.69089 22.2395 3.58276 22.696 3.58276C23.2967 3.58276 23.7653 3.73294 24.1017 4.0333C24.4441 4.32764 24.6153 4.70008 24.6153 5.15062C24.6153 5.475 24.5342 5.76034 24.372 6.00663C24.2158 6.24691 23.9815 6.43013 23.6691 6.55628C24.0116 6.64038 24.2789 6.79957 24.4711 7.03384C24.6633 7.26812 24.7594 7.56247 24.7594 7.91689Z" fill="white"/>
<path d="M27.4149 5.88048C28.0276 5.88048 28.5082 6.04267 28.8566 6.36706C29.205 6.68543 29.3792 7.12996 29.3792 7.70063C29.3792 8.2653 29.184 8.72484 28.7935 9.07926C28.4091 9.42768 27.8895 9.60188 27.2347 9.60188C26.5799 9.60188 26.0513 9.49976 25.6488 9.29552V8.43951C26.0333 8.67378 26.4958 8.79092 27.0365 8.79092C27.9856 8.79092 28.4601 8.40647 28.4601 7.63756C28.4601 7.3312 28.352 7.09392 28.1358 6.92572C27.9255 6.75151 27.6161 6.66441 27.2077 6.66441C26.7992 6.66441 26.3727 6.76953 25.9281 6.97978V3.63683H28.9828V4.40273H26.8022V5.95257C27.0244 5.90451 27.2287 5.88048 27.4149 5.88048Z" fill="white"/>
</g>
</svg>
