<svg width="19" height="17" viewBox="0 0 19 17" fill="none" xmlns="http://www.w3.org/2000/svg">
<path d="M12.9609 16.5928C13.3581 16.5928 13.7194 16.4951 14.0449 16.2998C14.377 16.111 14.6374 15.8506 14.8262 15.5186C15.0215 15.1865 15.1191 14.8252 15.1191 14.4346C15.1191 14.0309 15.0215 13.6663 14.8262 13.3408C14.6374 13.0153 14.377 12.7581 14.0449 12.5693C13.7194 12.374 13.3581 12.2764 12.9609 12.2764C12.5703 12.2764 12.209 12.374 11.877 12.5693C11.5449 12.7581 11.2812 13.0153 11.0859 13.3408C10.8971 13.6663 10.8027 14.0309 10.8027 14.4346C10.8027 14.8252 10.8971 15.1865 11.0859 15.5186C11.2812 15.8506 11.5449 16.111 11.877 16.2998C12.209 16.4951 12.5703 16.5928 12.9609 16.5928ZM12.9609 15.5381C12.6549 15.5381 12.3945 15.4307 12.1797 15.2158C11.9648 15.001 11.8574 14.7406 11.8574 14.4346C11.8574 14.1221 11.9648 13.8617 12.1797 13.6533C12.3945 13.4385 12.6549 13.3311 12.9609 13.3311C13.2734 13.3311 13.5339 13.4385 13.7422 13.6533C13.957 13.8617 14.0645 14.1221 14.0645 14.4346C14.0645 14.7406 13.957 15.001 13.7422 15.2158C13.5339 15.4307 13.2734 15.5381 12.9609 15.5381ZM11.4863 13.751H1.02734C0.838542 13.751 0.679036 13.8193 0.548828 13.9561C0.41862 14.0863 0.353516 14.2458 0.353516 14.4346C0.353516 14.6169 0.41862 14.7764 0.548828 14.9131C0.679036 15.0433 0.838542 15.1084 1.02734 15.1084H11.4863V13.751ZM18.1855 13.751H14.5527V15.1084H18.1855C18.3613 15.1084 18.5111 15.0433 18.6348 14.9131C18.765 14.7764 18.8301 14.6169 18.8301 14.4346C18.8301 14.2458 18.765 14.0863 18.6348 13.9561C18.5111 13.8193 18.3613 13.751 18.1855 13.751ZM6.37891 10.9482C6.76953 10.9482 7.1276 10.8538 7.45312 10.665C7.78516 10.4697 8.04883 10.2093 8.24414 9.88379C8.43945 9.55176 8.53711 9.18717 8.53711 8.79004C8.53711 8.3929 8.43945 8.03158 8.24414 7.70605C8.04883 7.37402 7.78516 7.11361 7.45312 6.9248C7.1276 6.72949 6.76953 6.63184 6.37891 6.63184C5.98177 6.63184 5.61719 6.72949 5.28516 6.9248C4.95964 7.11361 4.69922 7.37402 4.50391 7.70605C4.30859 8.03158 4.21094 8.3929 4.21094 8.79004C4.21094 9.18717 4.30859 9.55176 4.50391 9.88379C4.69922 10.2093 4.95964 10.4697 5.28516 10.665C5.61719 10.8538 5.98177 10.9482 6.37891 10.9482ZM6.37891 9.89355C6.06641 9.89355 5.80273 9.78613 5.58789 9.57129C5.37956 9.35645 5.27539 9.09603 5.27539 8.79004C5.27539 8.47754 5.37956 8.21712 5.58789 8.00879C5.80273 7.79395 6.06641 7.68652 6.37891 7.68652C6.69141 7.68652 6.95182 7.79395 7.16016 8.00879C7.36849 8.21712 7.47266 8.47754 7.47266 8.79004C7.47266 9.09603 7.36849 9.35645 7.16016 9.57129C6.95182 9.78613 6.69141 9.89355 6.37891 9.89355ZM0.998047 8.11621C0.822266 8.11621 0.669271 8.18132 0.539062 8.31152C0.415365 8.44173 0.353516 8.60124 0.353516 8.79004C0.353516 8.97884 0.415365 9.13835 0.539062 9.26855C0.669271 9.39876 0.822266 9.46387 0.998047 9.46387H4.80664V8.11621H0.998047ZM18.1562 8.11621H7.84375V9.46387H18.1562C18.3451 9.46387 18.5046 9.39876 18.6348 9.26855C18.765 9.13835 18.8301 8.97884 18.8301 8.79004C18.8301 8.60124 18.765 8.44173 18.6348 8.31152C18.5046 8.18132 18.3451 8.11621 18.1562 8.11621ZM12.9609 5.30371C13.3581 5.30371 13.7194 5.20605 14.0449 5.01074C14.377 4.80892 14.6374 4.54525 14.8262 4.21973C15.0215 3.89421 15.1191 3.53613 15.1191 3.14551C15.1191 2.74186 15.0215 2.37728 14.8262 2.05176C14.6374 1.72624 14.377 1.46582 14.0449 1.27051C13.7194 1.0752 13.3581 0.977539 12.9609 0.977539C12.5703 0.977539 12.209 1.0752 11.877 1.27051C11.5449 1.46582 11.2812 1.72624 11.0859 2.05176C10.8971 2.37728 10.8027 2.74186 10.8027 3.14551C10.8027 3.53613 10.8971 3.89421 11.0859 4.21973C11.2812 4.54525 11.5449 4.80892 11.877 5.01074C12.209 5.20605 12.5703 5.30371 12.9609 5.30371ZM12.9609 4.23926C12.6549 4.23926 12.3945 4.13184 12.1797 3.91699C11.9648 3.70215 11.8574 3.44173 11.8574 3.13574C11.8574 2.82324 11.9648 2.56283 12.1797 2.35449C12.3945 2.13965 12.6549 2.03223 12.9609 2.03223C13.2734 2.03223 13.5339 2.13965 13.7422 2.35449C13.957 2.56283 14.0645 2.82324 14.0645 3.13574C14.0645 3.44173 13.957 3.70215 13.7422 3.91699C13.5339 4.13184 13.2734 4.23926 12.9609 4.23926ZM11.5254 2.47168H1.02734C0.838542 2.47168 0.679036 2.53678 0.548828 2.66699C0.41862 2.7972 0.353516 2.95671 0.353516 3.14551C0.353516 3.33431 0.41862 3.49382 0.548828 3.62402C0.679036 3.75423 0.838542 3.81934 1.02734 3.81934H11.5254V2.47168ZM18.1855 2.47168H14.4551V3.81934H18.1855C18.3613 3.81934 18.5111 3.75423 18.6348 3.62402C18.765 3.49382 18.8301 3.33431 18.8301 3.14551C18.8301 2.95671 18.765 2.7972 18.6348 2.66699C18.5111 2.53678 18.3613 2.47168 18.1855 2.47168Z" fill="black"/>
</svg>
