<svg width="13" height="16" viewBox="0 0 13 16" fill="none" xmlns="http://www.w3.org/2000/svg">
<path d="M3.17871 15.0298H9.26953C9.66146 15.0298 9.97363 14.9204 10.2061 14.7017C10.4385 14.4829 10.5638 14.1799 10.582 13.7925L11.0059 4.25635H12.0107C12.1338 4.25635 12.2386 4.21305 12.3252 4.12646C12.4118 4.03988 12.4551 3.93506 12.4551 3.81201C12.4551 3.68896 12.4118 3.58415 12.3252 3.49756C12.2386 3.41097 12.1338 3.36768 12.0107 3.36768H0.4375C0.31901 3.36768 0.216471 3.41097 0.129883 3.49756C0.0432943 3.58415 0 3.68896 0 3.81201C0 3.93506 0.0432943 4.03988 0.129883 4.12646C0.216471 4.21305 0.31901 4.25635 0.4375 4.25635H1.44922L1.87988 13.7925C1.89811 14.1799 2.02116 14.4829 2.24902 14.7017C2.48145 14.9204 2.79134 15.0298 3.17871 15.0298ZM4.19043 13.1772C4.08561 13.1772 3.99902 13.1453 3.93066 13.0815C3.8623 13.0177 3.82585 12.9334 3.82129 12.8286L3.62305 5.7124C3.61849 5.60758 3.65039 5.52327 3.71875 5.45947C3.78711 5.39111 3.87826 5.35693 3.99219 5.35693C4.09701 5.35693 4.18359 5.38883 4.25195 5.45264C4.32031 5.51644 4.35677 5.60303 4.36133 5.7124L4.55957 12.8218C4.56413 12.9266 4.53223 13.0132 4.46387 13.0815C4.39551 13.1453 4.30436 13.1772 4.19043 13.1772ZM6.22754 13.1772C6.11361 13.1772 6.02018 13.1453 5.94727 13.0815C5.87891 13.0132 5.84473 12.9266 5.84473 12.8218V5.7124C5.84473 5.60758 5.87891 5.52327 5.94727 5.45947C6.02018 5.39111 6.11361 5.35693 6.22754 5.35693C6.34147 5.35693 6.43262 5.39111 6.50098 5.45947C6.57389 5.52327 6.61035 5.60758 6.61035 5.7124V12.8218C6.61035 12.9266 6.57389 13.0132 6.50098 13.0815C6.43262 13.1453 6.34147 13.1772 6.22754 13.1772ZM8.25781 13.1772C8.14388 13.1772 8.05273 13.1453 7.98438 13.0815C7.92057 13.0132 7.88867 12.9289 7.88867 12.8286L8.09375 5.7124C8.09831 5.60303 8.13477 5.51644 8.20312 5.45264C8.27148 5.38883 8.35807 5.35693 8.46289 5.35693C8.57682 5.35693 8.66797 5.39111 8.73633 5.45947C8.80469 5.52327 8.83659 5.60758 8.83203 5.7124L8.62695 12.8354C8.62695 12.9357 8.59277 13.0177 8.52441 13.0815C8.45605 13.1453 8.36719 13.1772 8.25781 13.1772ZM3.35645 3.56592H4.41602V2.41064C4.41602 2.23291 4.4707 2.09163 4.58008 1.98682C4.69401 1.882 4.84668 1.82959 5.03809 1.82959H7.40332C7.59473 1.82959 7.74512 1.882 7.85449 1.98682C7.96842 2.09163 8.02539 2.23291 8.02539 2.41064V3.56592H9.08496V2.35596C9.08496 1.882 8.93913 1.51058 8.64746 1.2417C8.36035 0.968262 7.96387 0.831543 7.45801 0.831543H4.97656C4.47526 0.831543 4.07878 0.968262 3.78711 1.2417C3.5 1.51058 3.35645 1.882 3.35645 2.35596V3.56592Z" fill="#EB5757"/>
</svg>
